# WaveFront *.obj file (generated by Autodesk ATF)

mtllib 63946486-d23f-4be7-beab-a7a71f9cea1e.mtl

g Body5

v -7.664084 5.195293 0.000000
v -7.664084 -4.804707 0.000000
v -7.664084 -4.804707 2.000000
v -7.664084 5.195293 2.000000
v 7.335916 5.195293 0.000000
v 7.335916 5.195293 2.000000
v 7.335916 -4.804707 0.000000
v 7.335916 -4.804707 2.000000
vt -0.000000 0.000000 0.000000
vt 1.000000 0.000000 0.000000
vt -0.000000 0.200000 0.000000
vt 1.000000 0.200000 0.000000
vt -0.000000 0.000000 0.000000
vt 1.500000 0.000000 0.000000
vt -0.000000 0.200000 0.000000
vt 1.500000 0.200000 0.000000
vt 0.000000 0.000000 0.000000
vt 1.000000 0.000000 0.000000
vt 0.000000 0.200000 0.000000
vt 1.000000 0.200000 0.000000
vt 0.000000 0.000000 0.000000
vt 1.500000 0.000000 0.000000
vt 0.000000 0.200000 0.000000
vt 1.500000 0.200000 0.000000
vt -0.750000 -0.500000 0.000000
vt 0.750000 -0.500000 0.000000
vt -0.750000 0.500000 0.000000
vt 0.750000 0.500000 0.000000
vt -0.750000 -0.500000 0.000000
vt 0.750000 -0.500000 0.000000
vt -0.750000 0.500000 0.000000
vt 0.750000 0.500000 0.000000
vn -0.100000 0.000000 0.000000
vn -0.100000 0.000000 0.000000
vn -0.100000 0.000000 0.000000
vn -0.100000 0.000000 0.000000
vn 0.000000 0.100000 0.000000
vn 0.000000 0.100000 0.000000
vn 0.000000 0.100000 0.000000
vn 0.000000 0.100000 0.000000
vn 0.100000 0.000000 0.000000
vn 0.100000 0.000000 0.000000
vn 0.100000 0.000000 0.000000
vn 0.100000 0.000000 0.000000
vn 0.000000 -0.100000 0.000000
vn 0.000000 -0.100000 0.000000
vn 0.000000 -0.100000 0.000000
vn 0.000000 -0.100000 0.000000
vn 0.000000 0.000000 0.100000
vn 0.000000 0.000000 0.100000
vn 0.000000 0.000000 0.100000
vn 0.000000 0.000000 0.100000
vn -0.000000 0.000000 -0.100000
vn -0.000000 0.000000 -0.100000
vn -0.000000 0.000000 -0.100000
vn -0.000000 0.000000 -0.100000
usemtl Steel_-_Satin
f 1/1/1 2/2/2 4/3/3
f 4/3/3 2/2/2 3/4/4
f 5/5/5 1/6/6 6/7/7
f 6/7/7 1/6/6 4/8/8
f 7/9/9 5/10/10 8/11/11
f 8/11/11 5/10/10 6/12/12
f 2/13/13 7/14/14 3/15/15
f 3/15/15 7/14/14 8/16/16
f 3/17/17 8/18/18 4/19/19
f 4/19/19 8/18/18 6/20/20
f 7/21/21 2/22/22 5/23/23
f 5/23/23 2/22/22 1/24/24
g Body3

v -25.164084 -58.804707 1.000000
v -25.164084 -8.804707 1.000000
v -25.164084 -8.804707 2.000000
v -25.164084 -58.804707 2.000000
v 24.835916 -58.804707 1.000000
v 24.835916 -58.804707 2.000000
v 24.835916 -8.804707 1.000000
v 24.835916 -8.804707 2.000000
v 11.335916 -8.804707 2.000000
v -11.664084 -8.804707 2.000000
v -11.664084 9.195293 2.000000
v 11.335916 9.195293 2.000000
v -30.164084 -63.804707 2.000000
v 29.835916 -63.804707 2.000000
v 29.835916 16.195293 2.000000
v -30.164084 16.195293 2.000000
v 11.335916 9.195293 15.000000
v 11.335916 -8.804707 15.000000
v -11.664084 9.195293 15.000000
v -11.664084 -8.804707 15.000000
v 7.335916 5.195293 0.000000
v 7.335916 5.195293 15.000000
v -7.664084 5.195293 15.000000
v -7.664084 5.195293 0.000000
v 7.335916 -4.804707 0.000000
v 7.335916 -4.804707 15.000000
v -7.664084 -4.804707 15.000000
v -7.664084 -4.804707 0.000000
v 29.835916 -63.804707 0.000000
v 29.835916 16.195293 0.000000
v -30.164084 -63.804707 0.000000
v -30.164084 16.195293 0.000000
vt 0.000000 0.000000 0.000000
vt 5.000000 0.000000 0.000000
vt 0.000000 0.100000 0.000000
vt 5.000000 0.100000 0.000000
vt 0.000000 0.000000 0.000000
vt 5.000000 0.000000 0.000000
vt 0.000000 0.100000 0.000000
vt 5.000000 0.100000 0.000000
vt -0.000000 0.000000 0.000000
vt 5.000000 0.000000 0.000000
vt -0.000000 0.100000 0.000000
vt 5.000000 0.100000 0.000000
vt 1.150000 1.500000 0.000000
vt 2.500000 1.500000 0.000000
vt 1.150000 3.300000 0.000000
vt 3.000000 4.000000 0.000000
vt -3.000000 4.000000 0.000000
vt 3.000000 -4.000000 0.000000
vt 2.500000 -3.500000 0.000000
vt -2.500000 -3.500000 0.000000
vt -3.000000 -4.000000 0.000000
vt -2.500000 1.500000 0.000000
vt -1.150000 3.300000 0.000000
vt -1.150000 1.500000 0.000000
vt 0.000000 0.200000 0.000000
vt 1.800000 0.200000 0.000000
vt 0.000000 1.500000 0.000000
vt 1.800000 1.500000 0.000000
vt -0.000000 0.200000 0.000000
vt 2.300000 0.200000 0.000000
vt -0.000000 1.500000 0.000000
vt 2.300000 1.500000 0.000000
vt -0.000000 0.200000 0.000000
vt 1.800000 0.200000 0.000000
vt -0.000000 1.500000 0.000000
vt 1.800000 1.500000 0.000000
vt 1.500000 1.500000 0.000000
vt 0.000000 1.500000 0.000000
vt 1.500000 0.000000 0.000000
vt 0.000000 0.000000 0.000000
vt 1.000000 1.500000 0.000000
vt 0.000000 1.500000 0.000000
vt 1.000000 0.000000 0.000000
vt 0.000000 0.000000 0.000000
vt 1.000000 1.500000 0.000000
vt 0.000000 1.500000 0.000000
vt 1.000000 0.000000 0.000000
vt 0.000000 0.000000 0.000000
vt 1.500000 1.500000 0.000000
vt 0.000000 1.500000 0.000000
vt 1.500000 0.000000 0.000000
vt 0.000000 0.000000 0.000000
vt 0.750000 0.500000 0.000000
vt 0.750000 -0.500000 0.000000
vt 1.150000 -0.900000 0.000000
vt -0.750000 -0.500000 0.000000
vt -1.150000 -0.900000 0.000000
vt -0.750000 0.500000 0.000000
vt -1.150000 0.900000 0.000000
vt 1.150000 0.900000 0.000000
vt 2.500000 1.500000 0.000000
vt -2.500000 1.500000 0.000000
vt 2.500000 -3.500000 0.000000
vt -2.500000 -3.500000 0.000000
vt 0.000000 0.000000 0.000000
vt 8.000000 0.000000 0.000000
vt 0.000000 0.200000 0.000000
vt 8.000000 0.200000 0.000000
vt 0.000000 0.000000 0.000000
vt 6.000000 0.000000 0.000000
vt 0.000000 0.200000 0.000000
vt 6.000000 0.200000 0.000000
vt -3.650000 0.200000 0.000000
vt -3.650000 0.100000 0.000000
vt -2.300000 0.200000 0.000000
vt 1.350000 0.100000 0.000000
vt 0.000000 0.200000 0.000000
vt 1.350000 0.200000 0.000000
vt 0.000000 1.500000 0.000000
vt -2.300000 1.500000 0.000000
vt -0.000000 0.000000 0.000000
vt 8.000000 0.000000 0.000000
vt -0.000000 0.200000 0.000000
vt 8.000000 0.200000 0.000000
vt -0.000000 0.000000 0.000000
vt 6.000000 0.000000 0.000000
vt -0.000000 0.200000 0.000000
vt 6.000000 0.200000 0.000000
vt -3.000000 4.000000 0.000000
vt -3.000000 -4.000000 0.000000
vt -0.750000 1.900000 0.000000
vt 3.000000 -4.000000 0.000000
vt 0.750000 1.900000 0.000000
vt 3.000000 4.000000 0.000000
vt 0.750000 2.900000 0.000000
vt -0.750000 2.900000 0.000000
vn 0.100000 0.000000 0.000000
vn 0.100000 0.000000 0.000000
vn 0.100000 0.000000 0.000000
vn 0.100000 0.000000 0.000000
vn 0.000000 0.100000 0.000000
vn 0.000000 0.100000 0.000000
vn 0.000000 0.100000 0.000000
vn 0.000000 0.100000 0.000000
vn -0.100000 0.000000 0.000000
vn -0.100000 0.000000 0.000000
vn -0.100000 0.000000 0.000000
vn -0.100000 0.000000 0.000000
vn 0.000000 0.000000 0.100000
vn 0.000000 0.000000 0.100000
vn 0.000000 0.000000 0.100000
vn 0.000000 0.000000 0.100000
vn 0.000000 0.000000 0.100000
vn 0.000000 0.000000 0.100000
vn 0.000000 0.000000 0.100000
vn 0.000000 0.000000 0.100000
vn 0.000000 0.000000 0.100000
vn 0.000000 0.000000 0.100000
vn 0.000000 0.000000 0.100000
vn 0.000000 0.000000 0.100000
vn 0.100000 0.000000 0.000000
vn 0.100000 0.000000 0.000000
vn 0.100000 0.000000 0.000000
vn 0.100000 0.000000 0.000000
vn 0.000000 0.100000 0.000000
vn 0.000000 0.100000 0.000000
vn 0.000000 0.100000 0.000000
vn 0.000000 0.100000 0.000000
vn -0.100000 0.000000 0.000000
vn -0.100000 0.000000 0.000000
vn -0.100000 0.000000 0.000000
vn -0.100000 0.000000 0.000000
vn 0.000000 -0.100000 0.000000
vn 0.000000 -0.100000 0.000000
vn 0.000000 -0.100000 0.000000
vn 0.000000 -0.100000 0.000000
vn -0.100000 0.000000 0.000000
vn -0.100000 0.000000 0.000000
vn -0.100000 0.000000 0.000000
vn -0.100000 0.000000 0.000000
vn 0.100000 0.000000 0.000000
vn 0.100000 0.000000 0.000000
vn 0.100000 0.000000 0.000000
vn 0.100000 0.000000 0.000000
vn 0.000000 0.100000 0.000000
vn 0.000000 0.100000 0.000000
vn 0.000000 0.100000 0.000000
vn 0.000000 0.100000 0.000000
vn 0.000000 0.000000 0.100000
vn 0.000000 0.000000 0.100000
vn 0.000000 0.000000 0.100000
vn 0.000000 0.000000 0.100000
vn 0.000000 0.000000 0.100000
vn 0.000000 0.000000 0.100000
vn 0.000000 0.000000 0.100000
vn 0.000000 0.000000 0.100000
vn 0.000000 0.000000 0.100000
vn 0.000000 0.000000 0.100000
vn 0.000000 0.000000 0.100000
vn 0.000000 0.000000 0.100000
vn 0.100000 0.000000 0.000000
vn 0.100000 0.000000 0.000000
vn 0.100000 0.000000 0.000000
vn 0.100000 0.000000 0.000000
vn 0.000000 -0.100000 0.000000
vn 0.000000 -0.100000 0.000000
vn 0.000000 -0.100000 0.000000
vn 0.000000 -0.100000 0.000000
vn 0.000000 -0.100000 0.000000
vn 0.000000 -0.100000 0.000000
vn 0.000000 -0.100000 0.000000
vn 0.000000 -0.100000 0.000000
vn 0.000000 -0.100000 0.000000
vn 0.000000 -0.100000 0.000000
vn 0.000000 -0.100000 0.000000
vn 0.000000 -0.100000 0.000000
vn -0.100000 0.000000 0.000000
vn -0.100000 0.000000 0.000000
vn -0.100000 0.000000 0.000000
vn -0.100000 0.000000 0.000000
vn 0.000000 0.100000 0.000000
vn 0.000000 0.100000 0.000000
vn 0.000000 0.100000 0.000000
vn 0.000000 0.100000 0.000000
vn -0.000000 0.000000 -0.100000
vn -0.000000 0.000000 -0.100000
vn -0.000000 0.000000 -0.100000
vn -0.000000 0.000000 -0.100000
vn -0.000000 0.000000 -0.100000
vn -0.000000 0.000000 -0.100000
vn -0.000000 0.000000 -0.100000
vn -0.000000 0.000000 -0.100000
f 9/25/25 10/26/26 12/27/27
f 12/27/27 10/26/26 11/28/28
f 13/29/29 9/30/30 14/31/31
f 14/31/31 9/30/30 12/32/32
f 15/33/33 13/34/34 16/35/35
f 16/35/35 13/34/34 14/36/36
f 17/37/37 16/38/38 20/39/39
f 20/39/39 16/38/38 23/40/40
f 20/39/39 23/40/40 24/41/41
f 23/40/40 16/38/38 22/42/42
f 22/42/42 16/38/38 14/43/43
f 22/42/42 14/43/43 12/44/44
f 22/42/42 12/44/44 21/45/45
f 21/45/45 12/44/44 11/46/46
f 21/45/45 11/46/46 24/41/41
f 24/41/41 11/46/46 19/47/47
f 24/41/41 19/47/47 20/39/39
f 11/46/46 18/48/48 19/47/47
f 17/49/49 20/50/50 26/51/51
f 26/51/51 20/50/50 25/52/52
f 20/53/53 19/54/54 25/55/55
f 25/55/55 19/54/54 27/56/56
f 19/57/57 18/58/58 27/59/59
f 27/59/59 18/58/58 28/60/60
f 30/61/61 31/62/62 29/63/63
f 29/63/63 31/62/62 32/64/64
f 34/65/65 30/66/66 33/67/67
f 33/67/67 30/66/66 29/68/68
f 31/69/69 35/70/70 32/71/71
f 32/71/71 35/70/70 36/72/72
f 35/73/73 34/74/74 36/75/75
f 36/75/75 34/74/74 33/76/76
f 30/77/77 34/78/78 26/79/79
f 26/79/79 34/78/78 35/80/80
f 26/79/79 35/80/80 28/81/81
f 28/81/81 35/80/80 31/82/82
f 28/81/81 31/82/82 27/83/83
f 27/83/83 31/82/82 30/77/77
f 27/83/83 30/77/77 25/84/84
f 25/84/84 30/77/77 26/79/79
f 15/85/85 10/86/86 13/87/87
f 13/87/87 10/86/86 9/88/88
f 37/89/89 38/90/90 22/91/91
f 22/91/91 38/90/90 23/92/92
f 39/93/93 37/94/94 21/95/95
f 21/95/95 37/94/94 22/96/96
f 11/97/97 10/98/98 18/99/99
f 18/99/99 10/98/98 15/100/100
f 18/99/99 15/100/100 17/101/101
f 17/101/101 15/100/100 16/102/102
f 26/103/103 28/104/104 17/101/101
f 17/101/101 28/104/104 18/99/99
f 40/105/105 39/106/106 24/107/107
f 24/107/107 39/106/106 21/108/108
f 38/109/109 40/110/110 23/111/111
f 23/111/111 40/110/110 24/112/112
f 38/113/113 37/114/114 33/115/115
f 33/115/115 37/114/114 39/116/116
f 33/115/115 39/116/116 36/117/117
f 36/117/117 39/116/116 40/118/118
f 36/117/117 40/118/118 32/119/119
f 32/119/119 40/118/118 38/113/113
f 32/119/119 38/113/113 29/120/120
f 29/120/120 38/113/113 33/115/115
# 40 vertices
# 120 texture params
# 120 normals
# 76 facets

# 2 groups
